<?xml version="1.0" encoding="UTF-8"?>
<svg width="11px" height="18px" viewBox="0 0 11 18" version="1.1" xmlns="http://www.w3.org/2000/svg" xmlns:xlink="http://www.w3.org/1999/xlink">
    <title>iOS</title>
    <g id="Design-Spec" stroke="none" stroke-width="1" fill="none" fill-rule="evenodd">
        <g id="Supported-platforms" transform="translate(-243.000000, -55.000000)" fill="#424245" fill-rule="nonzero">
            <g id="iOS" transform="translate(243.179199, 55.216309)">
                <path d="M2.2578125,17.5727539 L8.40869141,17.5727539 C9.76171875,17.5727539 10.6665039,16.7094727 10.6665039,15.4145508 L10.6665039,2.15820312 C10.6665039,0.86328125 9.76171875,0 8.40869141,0 L2.2578125,0 C0.904785156,0 0,0.86328125 0,2.15820312 L0,15.4145508 C0,16.7094727 0.904785156,17.5727539 2.2578125,17.5727539 Z M2.43212891,16.2363281 C1.7265625,16.2363281 1.33642578,15.862793 1.33642578,15.1987305 L1.33642578,2.37402344 C1.33642578,1.70996094 1.7265625,1.33642578 2.43212891,1.33642578 L3.49462891,1.33642578 C3.62744141,1.33642578 3.69384766,1.40283203 3.69384766,1.52734375 L3.69384766,1.71826172 C3.69384766,2.06689453 3.92626953,2.29931641 4.26660156,2.29931641 L6.40820312,2.29931641 C6.75683594,2.29931641 6.98095703,2.06689453 6.98095703,1.71826172 L6.98095703,1.52734375 C6.98095703,1.40283203 7.04736328,1.33642578 7.18017578,1.33642578 L8.24267578,1.33642578 C8.93994141,1.33642578 9.33007812,1.70996094 9.33007812,2.37402344 L9.33007812,15.1987305 C9.33007812,15.862793 8.93994141,16.2363281 8.24267578,16.2363281 L2.43212891,16.2363281 Z M3.57763672,15.6303711 L7.10546875,15.6303711 C7.32958984,15.6303711 7.48730469,15.4726562 7.48730469,15.2402344 C7.48730469,15.0078125 7.32958984,14.8583984 7.10546875,14.8583984 L3.57763672,14.8583984 C3.35351562,14.8583984 3.1875,15.0078125 3.1875,15.2402344 C3.1875,15.4726562 3.35351562,15.6303711 3.57763672,15.6303711 Z" id="Shape"></path>
            </g>
        </g>
    </g>
</svg>