<?xml version="1.0" encoding="UTF-8"?>
<svg width="20px" height="16px" viewBox="0 0 20 16" version="1.1" xmlns="http://www.w3.org/2000/svg" xmlns:xlink="http://www.w3.org/1999/xlink">
    <title>iPadOS</title>
    <g id="Design-Spec" stroke="none" stroke-width="1" fill="none" fill-rule="evenodd">
        <g id="Supported-platforms" transform="translate(-265.000000, -56.000000)" fill="#424245" fill-rule="nonzero">
            <g id="iPadOS" transform="translate(265.116699, 56.378418)">
                <path d="M2.60644531,15.2817383 L16.9667969,15.2817383 C18.7099609,15.2817383 19.5732422,14.418457 19.5732422,12.7084961 L19.5732422,2.57324219 C19.5732422,0.86328125 18.7099609,0 16.9667969,0 L2.60644531,0 C0.871582031,0 0,0.854980469 0,2.57324219 L0,12.7084961 C0,14.4267578 0.871582031,15.2817383 2.60644531,15.2817383 Z M2.62304688,13.9453125 C1.79296875,13.9453125 1.33642578,13.5053711 1.33642578,12.6420898 L1.33642578,2.63964844 C1.33642578,1.77636719 1.79296875,1.33642578 2.62304688,1.33642578 L16.9501953,1.33642578 C17.7719727,1.33642578 18.2368164,1.77636719 18.2368164,2.63964844 L18.2368164,12.6420898 C18.2368164,13.5053711 17.7719727,13.9453125 16.9501953,13.9453125 L2.62304688,13.9453125 Z M6.58251953,13.3061523 L12.9990234,13.3061523 C13.2231445,13.3061523 13.3808594,13.1567383 13.3808594,12.9243164 C13.3808594,12.6918945 13.2231445,12.5341797 12.9990234,12.5341797 L6.58251953,12.5341797 C6.35839844,12.5341797 6.19238281,12.6918945 6.19238281,12.9243164 C6.19238281,13.1567383 6.35839844,13.3061523 6.58251953,13.3061523 Z" id="Shape"></path>
            </g>
        </g>
    </g>
</svg>