<?xml version="1.0" encoding="UTF-8"?>
<svg width="20px" height="18px" viewBox="0 0 20 18" version="1.1" xmlns="http://www.w3.org/2000/svg" xmlns:xlink="http://www.w3.org/1999/xlink">
    <title>macOS</title>
    <g id="Design-Spec" stroke="none" stroke-width="1" fill="none" fill-rule="evenodd">
        <g id="Supported-platforms" transform="translate(-295.000000, -55.000000)" fill="#D2D2D7" fill-rule="nonzero">
            <g id="macOS" transform="translate(295.116699, 55.938477)">
                <path d="M1.90917969,13.7792969 L7.27148438,13.7792969 L7.27148438,15.3813477 L7.22167969,15.3813477 C6.85644531,15.3813477 6.54931641,15.6801758 6.54931641,16.0537109 C6.54931641,16.4272461 6.85644531,16.7260742 7.22167969,16.7260742 L12.5673828,16.7260742 C12.9326172,16.7260742 13.2314453,16.4272461 13.2314453,16.0537109 C13.2314453,15.6801758 12.9326172,15.3813477 12.5673828,15.3813477 L12.5175781,15.3813477 L12.5175781,13.7792969 L17.871582,13.7792969 C19.0668945,13.7792969 19.7890625,13.0571289 19.7890625,11.8618164 L19.7890625,1.90917969 C19.7890625,0.713867188 19.0668945,0 17.871582,0 L1.90917969,0 C0.722167969,0 0,0.713867188 0,1.90917969 L0,11.8618164 C0,13.0571289 0.722167969,13.7792969 1.90917969,13.7792969 Z M1.69335938,10.1186523 C1.44433594,10.1186523 1.33642578,10.0273438 1.33642578,9.76171875 L1.33642578,1.93408203 C1.33642578,1.56054688 1.56884766,1.33642578 1.93408203,1.33642578 L17.8549805,1.33642578 C18.2202148,1.33642578 18.4526367,1.56054688 18.4526367,1.93408203 L18.4526367,9.76171875 C18.4526367,10.0273438 18.3364258,10.1186523 18.0874023,10.1186523 L1.69335938,10.1186523 Z" id="Shape"/>
            </g>
        </g>
    </g>
</svg>