<?xml version="1.0" encoding="UTF-8"?>
<svg width="21px" height="17px" viewBox="0 0 21 17" version="1.1" xmlns="http://www.w3.org/2000/svg" xmlns:xlink="http://www.w3.org/1999/xlink">
    <title>tvOS</title>
    <g id="Design-Spec" stroke="none" stroke-width="1" fill="none" fill-rule="evenodd">
        <g id="Supported-platforms" transform="translate(-325.000000, -56.000000)" fill="#D2D2D7" fill-rule="nonzero">
            <g id="tvOS" transform="translate(325.116699, 56.004883)">
                <path d="M2.13330078,13.7709961 L18.6186523,13.7709961 C20.0214844,13.7709961 20.7519531,13.0488281 20.7519531,11.6376953 L20.7519531,2.125 C20.7519531,0.722167969 20.0214844,0 18.6186523,0 L2.13330078,0 C0.73046875,0 0,0.722167969 0,2.125 L0,11.6376953 C0,13.0488281 0.73046875,13.7709961 2.13330078,13.7709961 Z M2.15820312,12.4345703 C1.61035156,12.4345703 1.33642578,12.1606445 1.33642578,11.6210938 L1.33642578,2.14990234 C1.33642578,1.60205078 1.61035156,1.33642578 2.15820312,1.33642578 L18.59375,1.33642578 C19.1416016,1.33642578 19.4155273,1.60205078 19.4155273,2.14990234 L19.4155273,11.6210938 C19.4155273,12.1606445 19.1416016,12.4345703 18.59375,12.4345703 L2.15820312,12.4345703 Z M6.20068359,16.5849609 L14.5512695,16.5849609 C14.9165039,16.5849609 15.2236328,16.2861328 15.2236328,15.9125977 C15.2236328,15.5390625 14.9165039,15.2402344 14.5512695,15.2402344 L6.20068359,15.2402344 C5.83544922,15.2402344 5.52832031,15.5390625 5.52832031,15.9125977 C5.52832031,16.2861328 5.83544922,16.5849609 6.20068359,16.5849609 Z" id="Shape"/>
            </g>
        </g>
    </g>
</svg>