<?xml version="1.0" encoding="UTF-8"?>
<svg width="13px" height="18px" viewBox="0 0 13 18" version="1.1" xmlns="http://www.w3.org/2000/svg" xmlns:xlink="http://www.w3.org/1999/xlink">
    <title>watchOS</title>
    <g id="Design-Spec" stroke="none" stroke-width="1" fill="none" fill-rule="evenodd">
        <g id="Supported-platforms" transform="translate(-356.000000, -55.000000)" fill="#D2D2D7" fill-rule="nonzero">
            <g id="watchOS" transform="translate(356.872070, 55.125000)">
                <path d="M0,12.2436523 C0,13.5302734 0.506347656,14.4765625 1.44433594,14.9912109 C1.90087891,15.2319336 2.16650391,15.5390625 2.33251953,16.0952148 L2.59814453,16.9833984 C2.75585938,17.5146484 3.12939453,17.7719727 3.68554687,17.7719727 L7.52050781,17.7719727 C8.09326172,17.7719727 8.44189453,17.5229492 8.59960938,16.9833984 L8.87353516,16.0952148 C9.03955078,15.5390625 9.30517578,15.2319336 9.76171875,14.9912109 C10.699707,14.4765625 11.2060547,13.5302734 11.2060547,12.2436523 L11.2060547,8.30078125 L11.3222656,8.30078125 C11.7539062,8.30078125 12.0361328,8.01025391 12.0361328,7.53710938 L12.0361328,6.41650391 C12.0361328,5.94335938 11.7539062,5.65283203 11.3222656,5.65283203 L11.2060547,5.65283203 L11.2060547,5.52832031 C11.2060547,4.24169922 10.699707,3.30371094 9.76171875,2.78076172 C9.30517578,2.54003906 9.03955078,2.23291016 8.87353516,1.68505859 L8.59960938,0.788574219 C8.45849609,0.265625 8.08496094,0 7.52050781,0 L3.68554687,0 C3.12939453,0 2.75585938,0.257324219 2.59814453,0.788574219 L2.33251953,1.68505859 C2.17480469,2.22460938 1.90917969,2.54833984 1.44433594,2.78076172 C0.514648438,3.27880859 0,4.22509766 0,5.52832031 L0,12.2436523 Z M1.21191406,12.0693359 L1.21191406,5.7109375 C1.21191406,4.47412109 1.93408203,3.72705078 3.14599609,3.72705078 L8.06005859,3.72705078 C9.27197266,3.72705078 9.99414062,4.47412109 9.99414062,5.7109375 L9.99414062,12.0693359 C9.99414062,13.2978516 9.27197266,14.0449219 8.06005859,14.0449219 L3.14599609,14.0449219 C1.93408203,14.0449219 1.21191406,13.2978516 1.21191406,12.0693359 Z" id="Shape"/>
            </g>
        </g>
    </g>
</svg>